<svg width="190" height="70" viewBox="0 0 190 70" fill="none" xmlns="http://www.w3.org/2000/svg">
<path d="M172.014 57.1581C177.082 53.7228 177.941 47.4018 175.071 42.3022C172.149 37.1113 166.109 33.5101 160.233 33.0236C159.009 32.9236 158.966 34.6967 160.128 34.8903C165.204 35.7384 170.064 38.4722 172.916 42.8269C174.165 44.7106 174.79 46.9396 174.701 49.198C174.599 52.1608 172.945 54.2298 171.198 56.4311C170.777 56.9604 171.549 57.4696 172.014 57.1581Z" fill="#0E263B"/>
<path d="M167.834 61.8118C170.388 60.7654 173.306 59.7815 175.251 57.7248C175.324 57.6549 175.367 57.5597 175.371 57.4589C175.376 57.358 175.342 57.2593 175.275 57.1831C175.209 57.107 175.116 57.0593 175.015 57.0499C174.915 57.0405 174.815 57.0702 174.735 57.1327C172.673 58.5782 170.437 59.4886 168.099 60.3307C167.958 58.7181 168.075 57.0419 167.688 55.4792C167.654 55.3392 167.572 55.2157 167.455 55.1308C167.339 55.0459 167.196 55.0051 167.052 55.0155C166.909 55.026 166.773 55.0872 166.67 55.1881C166.568 55.289 166.504 55.4231 166.491 55.5666C166.358 57.5028 166.497 59.4481 166.903 61.346C166.925 61.443 166.969 61.5339 167.03 61.6122C167.091 61.6904 167.169 61.7541 167.258 61.7986C167.347 61.8432 167.445 61.8674 167.544 61.8697C167.644 61.872 167.743 61.8522 167.834 61.8118Z" fill="#0E263B"/>
<path d="M1.40661 11.6097L5.86757 12.3254L5.70505 13.3384L0 12.4231L1.99303 0L3.23713 0.199588L1.40661 11.6097Z" fill="#0E263B"/>
<path d="M17.1185 9.68217C17.0501 10.1087 16.9859 10.4326 16.9261 10.654L8.87507 9.36234C8.79276 10.1027 8.86974 10.7591 9.10602 11.3318C9.34229 11.9044 9.69923 12.3689 10.1768 12.725C10.6564 13.0693 11.2042 13.2909 11.8203 13.3897C12.626 13.519 13.3327 13.4318 13.9405 13.1283C14.5601 12.8266 15.012 12.3583 15.2962 11.7233L16.6113 11.9343C16.2223 12.8441 15.5883 13.5385 14.7094 14.0173C13.8442 14.4862 12.8251 14.6265 11.6521 14.4383C10.7397 14.292 9.95451 13.9594 9.29638 13.4406C8.64015 12.9099 8.16457 12.2381 7.86962 11.4251C7.58843 10.6022 7.52861 9.68716 7.69019 8.68004C7.85176 7.67292 8.19479 6.82252 8.7193 6.12884C9.2438 5.43517 9.89975 4.94488 10.6871 4.65799C11.4745 4.37109 12.3303 4.30177 13.2545 4.45004C14.1787 4.5983 14.9521 4.92899 15.5746 5.44208C16.2091 5.95708 16.6548 6.58765 16.9119 7.33379C17.1827 8.06998 17.2515 8.85277 17.1185 9.68217ZM15.8623 9.44418C15.9901 8.72333 15.9409 8.08344 15.7145 7.52454C15.5001 6.96753 15.1531 6.51687 14.6735 6.17257C14.194 5.82827 13.6462 5.60669 13.0301 5.50785C12.1059 5.35958 11.2705 5.52939 10.5238 6.01727C9.77704 6.50515 9.28166 7.28249 9.03759 8.3493L15.8623 9.44418Z" fill="#0E263B"/>
<path d="M28.1744 11.4559C28.1059 11.8824 28.0418 12.2063 27.982 12.4277L19.931 11.136C19.8487 11.8763 19.9256 12.5328 20.1619 13.1055C20.3982 13.6781 20.7551 14.1425 21.2327 14.4987C21.7123 14.843 22.2601 15.0646 22.8762 15.1634C23.6819 15.2927 24.3886 15.2055 24.9964 14.902C25.616 14.6003 26.0679 14.132 26.3521 13.497L27.6672 13.708C27.2782 14.6178 26.6442 15.3122 25.7653 15.791C24.9001 16.2598 23.881 16.4002 22.708 16.212C21.7956 16.0656 21.0104 15.7331 20.3523 15.2143C19.696 14.6836 19.2205 14.0118 18.9255 13.1988C18.6443 12.3759 18.5845 11.4608 18.7461 10.4537C18.9077 9.4466 19.2507 8.59621 19.7752 7.90253C20.2997 7.20886 20.9556 6.71857 21.743 6.43167C22.5304 6.14477 23.3862 6.07546 24.3104 6.22372C25.2346 6.37199 26.0079 6.70267 26.6305 7.21577C27.265 7.73077 27.7107 8.36134 27.9678 9.10748C28.2386 9.84367 28.3074 10.6265 28.1744 11.4559ZM26.9182 11.2179C27.046 10.497 26.9968 9.85713 26.7704 9.29822C26.556 8.74122 26.209 8.29056 25.7294 7.94626C25.2499 7.60195 24.7021 7.38038 24.086 7.28154C23.1618 7.13327 22.3264 7.30308 21.5796 7.79095C20.8329 8.27883 20.3376 9.05618 20.0935 10.123L26.9182 11.2179Z" fill="#0E263B"/>
<path d="M32.9108 17.8488C31.797 17.6702 30.9255 17.269 30.2964 16.6455C29.681 16.012 29.4031 15.2443 29.4627 14.3424L30.7423 14.5477C30.7141 15.1022 30.8976 15.5874 31.2927 16.0032C31.7016 16.4091 32.2911 16.6738 33.0612 16.7974C33.7366 16.9057 34.2895 16.8304 34.72 16.5713C35.1623 16.3141 35.4215 15.9485 35.4975 15.4746C35.5507 15.1428 35.4878 14.8532 35.3088 14.6057C35.1297 14.3582 34.8838 14.1486 34.5711 13.9769C34.2721 13.7953 33.8555 13.5887 33.3215 13.3572C32.6291 13.0516 32.073 12.768 31.6532 12.5062C31.2334 12.2444 30.893 11.9041 30.632 11.4855C30.3847 11.0569 30.3115 10.5287 30.4122 9.9007C30.4883 9.42676 30.7008 9.01118 31.0498 8.65395C31.3988 8.29672 31.8529 8.04144 32.4123 7.88811C32.9716 7.73478 33.5831 7.71133 34.2466 7.81778C35.2893 7.98506 36.0877 8.38661 36.642 9.02243C37.1982 9.64641 37.4258 10.4243 37.325 11.3561L36.0809 11.1565C36.1366 10.5821 35.9846 10.0898 35.6251 9.67964C35.2792 9.25956 34.7509 8.99249 34.04 8.87844C33.412 8.7777 32.8788 8.84407 32.4402 9.07755C32.0017 9.31104 31.7473 9.64698 31.677 10.0854C31.6161 10.4645 31.6783 10.7966 31.8635 11.0815C32.0625 11.3565 32.3223 11.5926 32.6431 11.7899C32.9658 11.9754 33.4042 12.1976 33.9581 12.4567C34.6268 12.7584 35.1542 13.0314 35.5404 13.2756C35.9266 13.5199 36.2402 13.8376 36.4813 14.2287C36.7224 14.6198 36.8032 15.1007 36.7238 15.6713C36.6402 16.1927 36.4229 16.6379 36.072 17.007C35.723 17.3642 35.2748 17.6204 34.7273 17.7757C34.1798 17.9309 33.5743 17.9553 32.9108 17.8488Z" fill="#0E263B"/>
<path d="M49.1789 10.2134C50.0912 10.3597 50.8509 10.7003 51.4578 11.2352C52.0647 11.7701 52.464 12.3872 52.6557 13.0864L52.995 10.9714L54.2391 11.171L52.6424 21.1237C52.4998 22.0124 52.1779 22.7689 51.6767 23.3934C51.1873 24.0198 50.5695 24.4615 49.8233 24.7186C49.0753 24.9875 48.2629 25.0516 47.3861 24.9109C46.142 24.7113 45.1528 24.2488 44.4184 23.5233C43.6959 22.7997 43.3157 21.9123 43.2778 20.861L44.5041 21.0578C44.609 21.7673 44.9254 22.3711 45.4532 22.869C45.9928 23.3688 46.6951 23.688 47.56 23.8268C48.188 23.9275 48.7727 23.8816 49.314 23.6889C49.8535 23.5081 50.3072 23.1798 50.6752 22.7041C51.0432 22.2284 51.2842 21.6351 51.3983 20.9241L51.7832 18.5248C51.3687 19.1389 50.7886 19.611 50.0429 19.941C49.3109 20.2611 48.4888 20.348 47.5765 20.2016C46.6878 20.0591 45.9213 19.7234 45.277 19.1947C44.6444 18.6678 44.1876 17.9929 43.9064 17.17C43.637 16.349 43.5822 15.4408 43.7418 14.4455C43.9015 13.4503 44.2367 12.6108 44.7475 11.927C45.272 11.2334 45.9161 10.7412 46.6798 10.4505C47.4572 10.1498 48.2902 10.0708 49.1789 10.2134ZM52.2166 15.8234C52.3421 15.0414 52.2923 14.3285 52.0675 13.6847C51.8426 13.041 51.4774 12.5145 50.9718 12.1053C50.4781 11.6979 49.8995 11.441 49.236 11.3346C48.5488 11.2243 47.908 11.2795 47.3135 11.5001C46.7191 11.7207 46.2144 12.1016 45.7994 12.6427C45.3982 13.1739 45.133 13.8423 45.0037 14.648C44.8764 15.4418 44.9182 16.1656 45.1294 16.8193C45.3542 17.463 45.7135 17.9886 46.2072 18.3959C46.7028 18.7914 47.2942 19.0443 47.9814 19.1546C48.645 19.261 49.2749 19.198 49.8713 18.9655C50.4795 18.735 50.991 18.3491 51.406 17.808C51.8209 17.2669 52.0911 16.6054 52.2166 15.8234Z" fill="#0E263B"/>
<path d="M55.735 16.3696C55.8946 15.3743 56.2299 14.5348 56.7406 13.8511C57.2651 13.1574 57.9092 12.6652 58.6729 12.3745C59.4503 12.0739 60.2834 11.9948 61.172 12.1374C62.0962 12.2857 62.8558 12.6263 63.4509 13.1593C64.0578 13.6942 64.4562 14.3171 64.646 15.0282L64.9881 12.8955L66.2322 13.095L64.6754 22.799L63.4313 22.5994L63.7763 20.4489C63.3618 21.063 62.7817 21.535 62.036 21.8651C61.3041 22.1852 60.476 22.2711 59.5518 22.1228C58.675 21.9822 57.9145 21.6475 57.2701 21.1187C56.6375 20.5919 56.1807 19.917 55.8995 19.094C55.6301 18.273 55.5753 17.3649 55.735 16.3696ZM64.2097 17.7474C64.3352 16.9654 64.2855 16.2525 64.0606 15.6088C63.8357 14.965 63.4705 14.4385 62.965 14.0293C62.4713 13.6219 61.8926 13.3651 61.2291 13.2586C60.5419 13.1484 59.9011 13.2035 59.3066 13.4242C58.7122 13.6448 58.2075 14.0256 57.7925 14.5668C57.3913 15.0979 57.1261 15.7663 56.9968 16.572C56.8695 17.3659 56.9114 18.0896 57.1225 18.7433C57.3473 19.3871 57.7066 19.9126 58.2003 20.32C58.696 20.7155 59.2874 20.9684 59.9746 21.0786C60.6381 21.1851 61.268 21.122 61.8644 20.8896C62.4726 20.659 62.9842 20.2732 63.3991 19.7321C63.8141 19.191 64.0843 18.5294 64.2097 17.7474Z" fill="#0E263B"/>
<path d="M77.4789 14.8993L75.9221 24.6033L74.678 24.4037L74.9517 22.6975C74.5704 23.2561 74.0579 23.6479 73.4141 23.8728C72.7704 24.0976 72.0812 24.1511 71.3466 24.0333C70.1855 23.847 69.2946 23.3395 68.674 22.5107C68.0554 21.6701 67.8554 20.5685 68.074 19.2059L68.9835 13.5364L70.2098 13.7332L69.3231 19.2605C69.1539 20.315 69.2853 21.1625 69.7173 21.803C70.1612 22.4455 70.8393 22.8398 71.7516 22.9862C72.6876 23.1364 73.4816 22.9599 74.1335 22.4568C74.7854 21.9538 75.2036 21.1276 75.388 19.9783L76.2348 14.6997L77.4789 14.8993Z" fill="#0E263B"/>
<path d="M93.1156 17.4079L88.5196 26.6243L87.2755 26.4247L85.8977 17.8542L81.9082 25.5636L80.6463 25.3612L79.164 15.1697L80.4258 15.3721L81.4886 24.2019L85.5621 16.1961L86.8062 16.3957L88.1327 25.2861L91.8892 17.2112L93.1156 17.4079Z" fill="#0E263B"/>
<path d="M101.774 27.511L106.407 19.5402L107.722 19.7512L102.273 28.8307L100.869 28.6054L98.5335 18.2771L99.8664 18.4909L101.774 27.511Z" fill="#0E263B"/>
<path d="M117.489 25.7846C117.421 26.2111 117.357 26.535 117.297 26.7564L109.246 25.4647C109.164 26.2051 109.241 26.8615 109.477 27.4342C109.713 28.0068 110.07 28.4713 110.548 28.8274C111.027 29.1717 111.575 29.3933 112.191 29.4921C112.997 29.6214 113.704 29.5342 114.311 29.2307C114.931 28.929 115.383 28.4607 115.667 27.8257L116.982 28.0367C116.593 28.9465 115.959 29.6409 115.08 30.1197C114.215 30.5886 113.196 30.7289 112.023 30.5407C111.111 30.3944 110.325 30.0618 109.667 29.543C109.011 29.0123 108.535 28.3405 108.24 27.5275C107.959 26.7046 107.899 25.7896 108.061 24.7824C108.223 23.7753 108.566 22.9249 109.09 22.2312C109.615 21.5376 110.271 21.0473 111.058 20.7604C111.845 20.4735 112.701 20.4042 113.625 20.5524C114.55 20.7007 115.323 21.0314 115.945 21.5445C116.58 22.0595 117.026 22.69 117.283 23.4362C117.554 24.1724 117.622 24.9552 117.489 25.7846ZM116.233 25.5466C116.361 24.8257 116.312 24.1858 116.085 23.6269C115.871 23.0699 115.524 22.6193 115.044 22.275C114.565 21.9307 114.017 21.7091 113.401 21.6102C112.477 21.462 111.641 21.6318 110.895 22.1197C110.148 22.6075 109.653 23.3849 109.408 24.4517L116.233 25.5466Z" fill="#0E263B"/>
<path d="M121.432 23.719C121.801 23.1584 122.291 22.7569 122.901 22.5145C123.523 22.274 124.243 22.2193 125.06 22.3505L124.852 23.6479L124.514 23.5937C123.614 23.4492 122.852 23.5762 122.229 23.9745C121.606 24.3729 121.203 25.1408 121.021 26.2782L120.151 31.6989L118.907 31.4993L120.464 21.7954L121.708 21.995L121.432 23.719Z" fill="#0E263B"/>
<path d="M125.559 27.5714C125.719 26.5761 126.06 25.7376 126.582 25.0557C127.107 24.3621 127.751 23.8699 128.515 23.5792C129.292 23.2785 130.125 23.1995 131.014 23.342C131.867 23.4789 132.604 23.8098 133.224 24.3348C133.845 24.8597 134.262 25.4796 134.476 26.1944L135.365 20.6493L136.609 20.8489L134.499 34.0008L133.255 33.8012L133.603 31.6329C133.199 32.2607 132.623 32.7397 131.878 33.0697C131.134 33.3879 130.306 33.4738 129.394 33.3275C128.505 33.1849 127.738 32.8493 127.094 32.3205C126.462 31.7937 126.005 31.1188 125.723 30.2958C125.454 29.4748 125.399 28.5667 125.559 27.5714ZM134.034 28.9492C134.159 28.1672 134.109 27.4543 133.885 26.8106C133.66 26.1668 133.294 25.6403 132.789 25.2311C132.295 24.8237 131.717 24.5668 131.053 24.4604C130.366 24.3501 129.725 24.4053 129.131 24.626C128.536 24.8466 128.031 25.2274 127.616 25.7685C127.215 26.2997 126.95 26.9681 126.821 27.7738C126.693 28.5677 126.735 29.2914 126.946 29.9451C127.171 30.5889 127.531 31.1144 128.024 31.5218C128.52 31.9173 129.111 32.1702 129.799 32.2804C130.462 32.3868 131.092 32.3238 131.688 32.0914C132.297 31.8608 132.808 31.475 133.223 30.9339C133.638 30.3928 133.908 29.7312 134.034 28.9492Z" fill="#0E263B"/>
<path d="M146.978 30.5153C146.909 30.9419 146.845 31.2658 146.785 31.4871L138.734 30.1955C138.652 30.9358 138.729 31.5923 138.965 32.1649C139.201 32.7376 139.558 33.202 140.036 33.5582C140.515 33.9025 141.063 34.124 141.679 34.2229C142.485 34.3521 143.192 34.265 143.8 33.9614C144.419 33.6598 144.871 33.1914 145.155 32.5564L146.47 32.7674C146.081 33.6773 145.447 34.3716 144.568 34.8504C143.703 35.3193 142.684 35.4597 141.511 35.2715C140.599 35.1251 139.814 34.7925 139.155 34.2737C138.499 33.7431 138.024 33.0713 137.729 32.2583C137.447 31.4353 137.388 30.5203 137.549 29.5132C137.711 28.5061 138.054 27.6557 138.578 26.962C139.103 26.2683 139.759 25.778 140.546 25.4911C141.334 25.2042 142.189 25.1349 143.114 25.2832C144.038 25.4315 144.811 25.7621 145.434 26.2752C146.068 26.7902 146.514 27.4208 146.771 28.1669C147.042 28.9031 147.111 29.6859 146.978 30.5153ZM145.721 30.2773C145.849 29.5565 145.8 28.9166 145.574 28.3577C145.359 27.8007 145.012 27.35 144.533 27.0057C144.053 26.6614 143.505 26.4398 142.889 26.341C141.965 26.1927 141.129 26.3625 140.383 26.8504C139.636 27.3383 139.141 28.1156 138.897 29.1825L145.721 30.2773Z" fill="#0E263B"/>
<path d="M150.92 28.4497C151.289 27.8892 151.779 27.4877 152.389 27.2453C153.011 27.0047 153.731 26.9501 154.548 27.0812L154.34 28.3786L154.003 28.3244C153.102 28.18 152.34 28.3069 151.717 28.7053C151.094 29.1036 150.692 29.8715 150.509 31.009L149.64 36.4297L148.395 36.2301L149.952 26.5262L151.196 26.7258L150.92 28.4497Z" fill="#0E263B"/>
</svg>
