<?xml version="1.0" standalone="no"?>
<!DOCTYPE svg PUBLIC "-//W3C//DTD SVG 1.1//EN" "http://www.w3.org/Graphics/SVG/1.1/DTD/svg11.dtd" >
<svg xmlns="http://www.w3.org/2000/svg">
<metadata>Generated by IcoMoon</metadata>
<defs>
<font id="icomoon" horiz-adv-x="1024">
<font-face units-per-em="1024" ascent="960" descent="-64" />
<missing-glyph horiz-adv-x="1024" />
<glyph unicode="&#x20;" horiz-adv-x="512" d="" />
<glyph unicode="&#xe900;" glyph-name="fb" horiz-adv-x="512" d="M118.543 737.375v-130.024h-94.454v-159.305h94.454v-472.27h188.906v472.27h132.934c0 0 12.317 76.526 18.192 159.871h-151.126v108.735c0 16.265 25.219 38.122 46.018 38.122h105.108v165.539h-142.889c-202.451 0-197.143-159.173-197.143-182.937z" />
<glyph unicode="&#xe901;" glyph-name="ig" horiz-adv-x="960" d="M481.336 828.996c124.155 0 138.728-0.554 187.797-2.767 45.382-2.029 69.92-9.593 86.336-16.049 21.773-8.486 37.267-18.448 53.504-34.682 16.23-16.234 26.381-31.731 34.682-53.499 6.272-16.419 14.016-40.954 16.051-86.337 2.208-49.071 2.765-63.645 2.765-187.8s-0.557-138.73-2.765-187.798c-2.035-45.382-9.594-69.92-16.051-86.336-8.486-21.773-18.451-37.267-34.682-53.498-16.237-16.237-31.731-26.381-53.504-34.688-16.416-6.272-40.954-14.016-86.336-16.045-49.069-2.214-63.642-2.771-187.797-2.771s-138.728 0.557-187.8 2.771c-45.382 2.029-69.917 9.594-86.336 16.045-21.769 8.486-37.265 18.451-53.499 34.688-16.234 16.23-26.381 31.725-34.682 53.498-6.273 16.416-14.020 40.954-16.050 86.336-2.214 49.069-2.767 63.644-2.767 187.798s0.554 138.728 2.767 187.8c2.029 45.382 9.593 69.918 16.050 86.337 8.486 21.768 18.448 37.265 34.682 53.499s31.73 26.38 53.499 34.682c16.419 6.272 40.954 14.020 86.336 16.049 49.071 2.398 63.645 2.767 187.8 2.767zM481.336 912.75c-126.184 0-142.049-0.553-191.674-2.767-49.441-2.214-83.2-10.146-112.717-21.584-30.623-11.807-56.451-27.857-82.278-53.683s-41.692-51.839-53.683-82.278c-11.438-29.517-19.37-63.277-21.584-112.901-2.214-49.441-2.767-65.306-2.767-191.49s0.553-142.050 2.767-191.676c2.214-49.44 10.146-83.2 21.584-112.902 11.807-30.618 27.856-56.448 53.683-82.272 25.827-25.83 51.839-41.696 82.278-53.683 29.517-11.443 63.276-19.373 112.901-21.587s65.306-2.765 191.674-2.765c126.368 0 142.049 0.55 191.676 2.765 49.44 2.214 83.2 10.144 112.896 21.587 30.624 11.802 56.454 27.853 82.278 53.683 25.83 25.824 41.696 51.834 53.683 82.272 11.437 29.517 19.373 63.277 21.587 112.902s2.765 65.308 2.765 191.676c0 126.369-0.55 142.049-2.765 191.674-2.214 49.44-10.15 83.2-21.587 112.901-11.802 30.623-27.853 56.451-53.683 82.278-25.824 25.827-51.834 41.692-82.278 53.683-29.517 11.438-63.277 19.37-112.896 21.584-49.812 2.029-65.677 2.583-191.861 2.583zM481.337 686.75c-131.718 0-238.716-106.813-238.716-238.716 0-131.9 106.998-238.716 238.716-238.716s238.714 106.995 238.714 238.716c0 131.718-106.996 238.716-238.714 238.716zM481.337 293.069c-85.598 0-154.963 69.367-154.963 154.965s69.364 154.963 154.963 154.963c85.599 0 154.963-69.364 154.963-154.963s-69.364-154.965-154.963-154.965zM729.459 640.45c30.771 0 55.712 24.943 55.712 55.713s-24.941 55.713-55.712 55.713c-30.771 0-55.712-24.943-55.712-55.713s24.941-55.713 55.712-55.713z" />
<glyph unicode="&#xe902;" glyph-name="yt1" d="M985.6 646.817c0.006 18.543-3.642 36.906-10.733 54.040s-17.491 32.703-30.598 45.82c-13.107 13.116-28.672 23.521-45.805 30.622-17.126 7.101-35.488 10.758-54.035 10.764h-662.211c-37.448-0.015-73.356-14.904-99.826-41.393s-41.335-62.406-41.325-99.853v-378.702c0-77.997 63.19-141.28 141.151-141.28h662.211c77.965 0 141.171 63.283 141.171 141.28v378.702zM418.88 297.677v355.714l269.741-177.837-269.741-177.877z" />
<glyph unicode="&#xe903;" glyph-name="right-arrow" d="M397.060 910.351l293.334-349.586c9.85-11.882 14.566-27.151 13.114-42.474-1.446-15.323-8.941-29.454-20.845-39.309s-27.245-14.632-42.685-13.288c-15.437 1.343-29.712 8.698-39.708 20.458l-189.605 225.943v-654.77c0-15.45-6.18-30.272-17.183-41.197s-25.924-17.062-41.484-17.062c-15.56 0-30.482 6.138-41.484 17.062s-17.183 25.747-17.183 41.197v654.794l-189.604-225.967c-9.964-11.868-24.268-19.32-39.764-20.714s-30.915 3.381-42.866 13.277c-11.95 9.896-19.453 24.101-20.857 39.491s3.404 30.703 13.369 42.572l293.334 349.585c5.59 6.425 12.509 11.579 20.285 15.111s16.226 5.36 24.777 5.359c8.55-0.001 17-1.831 24.775-5.365s14.692-8.69 20.281-15.116z" />
<glyph unicode="&#xe904;" glyph-name="chevron" d="M512 147.891c-19.412 0-37.059 7.059-51.177 21.177l-441.182 458.829c-26.471 28.236-26.471 72.354 1.765 100.589 28.236 26.471 72.354 26.471 100.589-1.765l390.004-405.887 390.004 405.887c26.471 28.236 72.354 28.236 100.589 1.765s28.236-72.354 1.765-100.589l-441.182-458.829c-14.118-14.118-31.765-21.177-51.177-21.177z" />
<glyph unicode="&#xe905;" glyph-name="cross" d="M605.814 447.153l398.725 398.737c25.953 25.936 25.953 67.871 0 93.807-25.936 25.936-67.871 25.936-93.808 0l-398.737-398.737-398.725 398.737c-25.948 25.936-67.871 25.936-93.808 0-25.948-25.936-25.948-67.872 0-93.807l398.725-398.737-398.725-398.737c-25.948-25.937-25.948-67.872 0-93.809 12.926-12.937 29.921-19.437 46.904-19.437s33.966 6.499 46.904 19.437l398.725 398.737 398.737-398.737c12.938-12.937 29.921-19.437 46.904-19.437s33.966 6.499 46.903 19.437c25.953 25.937 25.953 67.872 0 93.809l-398.725 398.737z" />
<glyph unicode="&#xe906;" glyph-name="menu" d="M981.333 406.219h-938.667c-23.552 0-42.667 19.115-42.667 42.667s19.115 42.667 42.667 42.667h938.667c23.552 0 42.667-19.115 42.667-42.667s-19.115-42.667-42.667-42.667zM981.333 733.333h-938.667c-23.552 0-42.667 19.115-42.667 42.667s19.115 42.667 42.667 42.667h938.667c23.552 0 42.667-19.115 42.667-42.667s-19.115-42.667-42.667-42.667zM981.333 79.115h-938.667c-23.552 0-42.667 19.115-42.667 42.667s19.115 42.667 42.667 42.667h938.667c23.552 0 42.667-19.115 42.667-42.667s-19.115-42.667-42.667-42.667z" />
<glyph unicode="&#xe907;" glyph-name="check" d="M1334.007 930.389c-8.849 9.437-19.533 16.96-31.403 22.103-11.861 5.143-24.661 7.796-37.589 7.796-12.937 0-25.728-2.653-37.598-7.796s-22.554-12.665-31.394-22.103l-723.629-747.349-304.213 314.453c-9.3 9.239-20.342 16.538-32.486 21.475s-25.148 7.412-38.256 7.282c-13.118-0.214-26.055-3.092-38.025-8.462s-22.724-13.117-31.607-22.77c-18.484-19.695-28.477-45.872-27.819-72.875 0.514-26.948 11.359-52.669 30.293-71.851l373.077-384.683c8.948-9.267 19.655-16.666 31.493-21.751 11.839-5.077 24.573-7.757 37.456-7.859 12.919-0.034 25.708 2.569 37.581 7.663s22.577 12.561 31.454 21.948l792.749 817.493c9.805 9.592 17.604 21.047 22.921 33.694 5.325 12.646 8.064 26.229 8.064 39.949s-2.739 27.302-8.064 39.949c-5.316 12.646-13.201 24.102-23.006 33.694z" />
<glyph unicode="&#xe908;" glyph-name="linkedin" d="M921.6 38.4v300.032c0 147.456-31.744 260.096-203.776 260.096-82.944 0-138.24-45.056-160.768-88.064h-2.048v74.752h-162.816v-546.816h169.984v271.36c0 71.68 13.312 140.288 101.376 140.288 87.040 0 88.064-80.896 88.064-144.384v-266.24h169.984zM115.712 585.216h169.984v-546.816h-169.984zM200.704 857.6c-54.272 0-98.304-44.032-98.304-98.304s44.032-99.328 98.304-99.328 98.304 45.056 98.304 99.328-44.032 98.304-98.304 98.304z" />
<glyph unicode="&#xe909;" glyph-name="envelope-solid-full" d="M179.2 755.2c-42.4 0-76.8-34.4-76.8-76.8 0-24.16 11.36-46.88 30.72-61.44l332.8-249.6c27.36-20.48 64.8-20.48 92.16 0l332.8 249.6c19.36 14.56 30.72 37.28 30.72 61.44 0 42.4-34.4 76.8-76.8 76.8h-665.6zM102.4 544v-300.8c0-56.48 45.92-102.4 102.4-102.4h614.4c56.48 0 102.4 45.92 102.4 102.4v300.8l-317.44-238.080c-54.56-40.96-129.76-40.96-184.32 0l-317.44 238.080z" />
<glyph unicode="&#xe90a;" glyph-name="phone-solid-full" d="M358.72 817.6c-12.64 30.24-45.6 46.24-76.96 37.76l-8.8-2.4c-103.36-28.16-191.68-128.32-165.92-250.24 59.36-280 279.68-500.32 559.68-559.68 122.080-25.92 222.080 62.56 250.24 165.92l2.4 8.8c8.64 31.52-7.52 64.48-37.6 76.96l-155.68 64.8c-26.4 11.040-56.96 3.36-75.2-18.88l-61.76-75.52c-112.48 55.84-203.040 149.28-255.040 264l70.72 57.6c22.24 18.080 29.76 48.64 18.88 75.2l-64.96 155.68z" />
<glyph unicode="&#xe90b;" glyph-name="pin" d="M512 960c-211.961-0.29-383.71-172.039-384-383.972v-0.028c0-275.68 357.76-620.96 372.96-635.52 2.85-2.772 6.745-4.481 11.040-4.481s8.19 1.709 11.044 4.485l-0.004-0.004c15.2 14.56 372.96 359.84 372.96 635.52-0.29 211.961-172.039 383.71-383.972 384h-0.028zM512 400c-97.202 0-176 78.798-176 176s78.798 176 176 176c97.202 0 176-78.798 176-176v0c-0.060-97.178-78.822-175.94-175.994-176h-0.006z" />
<glyph unicode="&#xe90c;" glyph-name="twitter" d="M607.324 526.406l373.010 433.594h-88.391l-323.885-376.484-258.686 376.484h-298.363l391.184-569.31-391.184-454.69h88.396l342.031 397.58 273.191-397.58h298.363l-405.688 590.406zM486.253 385.674l-354.997 507.782h135.772l624.957-893.939h-135.772l-269.96 386.135z" />
<glyph unicode="&#xe90d;" glyph-name="play-button-2" d="M512 960c-282.766 0-512-229.23-512-512s229.234-512 512-512 512 229.23 512 512-229.234 512-512 512zM688.96 420.86l-256-160c-5.18-3.234-11.070-4.86-16.96-4.86-5.336 0-10.68 1.328-15.516 4.016-10.172 5.64-16.484 16.344-16.484 27.984v320c0 11.64 6.312 22.344 16.484 27.984 10.172 5.672 22.61 5.328 32.476-0.844l256-160c9.352-5.86 15.040-16.11 15.040-27.14s-5.688-21.282-15.040-27.14z" />
<glyph unicode="&#xe90e;" glyph-name="magnifying-glass" d="M999.75 84.156l-235.424 235.442c40 63.682 63.216 138.949 63.216 219.726 0 228.528-185.26 413.762-413.779 413.762s-413.762-185.234-413.762-413.762c0-228.536 185.234-413.753 413.762-413.753 87.906 0 169.329 27.483 236.33 74.182l232.623-232.64c16.164-16.147 37.354-24.19 58.518-24.19 21.19 0 42.354 8.043 58.544 24.19 32.302 32.336 32.302 84.716-0.026 117.044zM413.762 259.623c-154.458 0-279.683 125.217-279.683 279.683s125.225 279.692 279.683 279.692c154.467 0 279.683-125.225 279.683-279.692s-125.217-279.683-279.683-279.683z" />
<glyph unicode="&#xe90f;" glyph-name="Vector" horiz-adv-x="1536" d="M278.4 891.733l489.6-488.533 489.6 488.533 150.4-150.4-640-640-640 640 150.4 150.4z" />
<glyph unicode="&#xe910;" glyph-name="Vector1" horiz-adv-x="1268" d="M0 458.781c0-13.449 4.161-24.332 12.483-32.617 8.322-8.324 18.985-12.444 32.025-12.444h936.747l184.125 4.715-10.142 26.229-225.212-208.569-201.665-203.186c-4.047-4.013-7.056-8.841-9.099-14.487-2.043-5.573-3.048-11.518-3.048-17.798 0-12.556 4.159-22.996 12.483-31.281s18.983-12.444 32.027-12.444c12.147 0 23.142 4.715 33.065 14.117l454.515 453.476c4.94 4.905 8.655 10.294 11.147 16.126 2.453 5.832 3.677 11.888 3.677 18.164 0 6.32-1.224 12.225-3.716 17.835-2.697 5.912-6.476 11.268-11.147 15.79l-454.441 454.145c-8.884 8.564-20.724 13.379-33.065 13.449-13 0-23.703-4.161-32.022-12.446-4.111-4.083-7.339-8.966-9.489-14.347-2.146-5.381-3.165-11.144-2.994-16.935 0-6.316 1-12.223 3.043-17.833 2.009-5.573 5.057-10.402 9.104-14.489l201.66-203.815 225.256-208.573 10.103 26.9-184.125 5.387h-936.786c-13.003 0-23.703-4.235-32.025-12.78s-12.483-19.282-12.483-32.287z" />
<glyph unicode="&#xe911;" glyph-name="circle-check-regular-full" d="M512 38.4c-226.24 0-409.6 183.36-409.6 409.6s183.36 409.6 409.6 409.6c226.24 0 409.6-183.36 409.6-409.6s-183.36-409.6-409.6-409.6zM512 780.8c-183.84 0-332.8-148.96-332.8-332.8s148.96-332.8 332.8-332.8c183.84 0 332.8 148.96 332.8 332.8s-148.96 332.8-332.8 332.8zM625.12 585.76c12.48 17.12 36.48 20.96 53.6 8.48s20.96-36.48 8.48-53.6l-195.36-268.8c-6.56-9.12-16.8-14.88-28-15.68s-22.24 3.2-30.080 11.040l-89.44 89.44c-15.040 15.040-15.040 39.36 0 54.24s39.36 15.040 54.24 0l57.6-57.6 168.96 232.32z" />
<glyph unicode="&#xe912;" glyph-name="right-to-bracket-solid-full" d="M654.4 420.8c15.040 15.040 15.040 39.36 0 54.24l-230.4 230.56c-11.040 11.040-27.52 14.24-41.92 8.32s-23.68-20-23.68-35.52v-128h-179.2c-42.4 0-76.8-34.4-76.8-76.8v-51.2c0-42.4 34.4-76.8 76.8-76.8h179.2v-128c0-15.52 9.28-29.6 23.68-35.52s30.88-2.72 41.92 8.32l230.4 230.4zM665.6 192c-28.32 0-51.2-22.88-51.2-51.2s22.88-51.2 51.2-51.2h102.4c84.8 0 153.6 68.8 153.6 153.6v409.6c0 84.8-68.8 153.6-153.6 153.6h-102.4c-28.32 0-51.2-22.88-51.2-51.2s22.88-51.2 51.2-51.2h102.4c28.32 0 51.2-22.88 51.2-51.2v-409.6c0-28.32-22.88-51.2-51.2-51.2h-102.4z" />
<glyph unicode="&#xe913;" glyph-name="clock-regular-full" d="M844.8 448c0-183.84-148.96-332.8-332.8-332.8s-332.8 148.96-332.8 332.8c0 183.84 148.96 332.8 332.8 332.8s332.8-148.96 332.8-332.8zM102.4 448c0-226.24 183.36-409.6 409.6-409.6s409.6 183.36 409.6 409.6c0 226.24-183.36 409.6-409.6 409.6s-409.6-183.36-409.6-409.6zM473.6 665.6v-217.6c0-12.8 6.4-24.8 17.12-32l153.6-102.4c17.6-11.84 41.44-7.040 53.28 10.72s7.040 41.44-10.72 53.28l-136.48 90.88v197.12c0 21.28-17.12 38.4-38.4 38.4s-38.4-17.12-38.4-38.4z" />
<glyph unicode="&#xe914;" glyph-name="yt" horiz-adv-x="1408" d="M1408 744.323c0.006 27.643-5.427 55.016-16 80.557s-26.074 48.751-45.613 68.302c-19.539 19.552-42.739 35.063-68.275 45.648s-52.909 16.037-80.55 16.045h-987.15c-55.822-0.022-109.349-22.217-148.808-61.703s-61.618-93.028-61.603-148.85v-564.521c0-116.275 94.195-210.611 210.412-210.611h987.15c116.218 0 210.438 94.336 210.438 210.611v564.521zM563.2 223.872v530.25l402.099-265.098-402.099-265.152z" />
<glyph unicode="&#xe915;" glyph-name="star-1" horiz-adv-x="5018" d="M430.503 926.319c6.52 20.119 25.274 33.719 46.387 33.719s39.804-13.599 46.322-33.719l81.782-251.989c2.422-7.39 7.142-13.848 13.414-18.443 6.333-4.595 13.972-7.080 21.734-7.080l264.97 0.125c21.11 0 39.803-13.599 46.321-33.719 6.523-20.057-0.62-42.040-17.695-54.46l-214.359-155.675c-6.333-4.598-11.054-11.054-13.476-18.442-2.422-7.455-2.36-15.468 0-22.856l81.966-251.93c6.523-20.116-0.62-42.097-17.695-54.518-17.080-12.421-40.238-12.421-57.318 0l-214.233 155.802c-6.334 4.593-13.91 7.076-21.734 7.076s-15.4-2.483-21.734-7.076l-214.296-155.802c-17.077-12.421-40.179-12.421-57.255 0-17.139 12.421-24.279 34.401-17.696 54.518l81.906 251.93c2.422 7.388 2.422 15.401 0 22.856-2.36 7.388-7.079 13.844-13.413 18.442l-214.359 155.675c-17.077 12.42-24.281 34.403-17.76 54.46 6.582 20.12 25.274 33.719 46.387 33.719l264.905-0.125c7.824 0 15.462 2.485 21.734 7.080 6.334 4.595 11.054 11.053 13.413 18.443l81.781 251.989zM1440.538 926.319c6.523 20.119 25.277 33.719 46.387 33.719 21.115 0 39.808-13.599 46.326-33.719l81.782-251.989c2.422-7.39 7.142-13.848 13.414-18.443 6.333-4.595 13.972-7.080 21.734-7.080l264.965 0.125c21.115 0 39.808-13.599 46.326-33.719 6.523-20.057-0.62-42.040-17.7-54.46l-214.359-155.675c-6.333-4.598-11.049-11.054-13.471-18.442-2.427-7.455-2.36-15.468 0-22.856l81.966-251.93c6.518-20.116-0.62-42.097-17.7-54.518-17.075-12.421-40.238-12.421-57.313 0l-214.236 155.802c-6.333 4.593-13.906 7.076-21.734 7.076-7.823 0-15.401-2.483-21.734-7.076l-214.292-155.802c-17.080-12.421-40.182-12.421-57.257 0-17.137 12.421-24.279 34.401-17.695 54.518l81.905 251.93c2.422 7.388 2.422 15.401 0 22.856-2.36 7.388-7.081 13.844-13.414 18.442l-214.359 155.675c-17.075 12.42-24.279 34.403-17.761 54.46 6.584 20.12 25.277 33.719 46.387 33.719l264.909-0.125c7.823 0 15.462 2.485 21.734 7.080 6.333 4.595 11.054 11.053 13.414 18.443l81.777 251.989zM2450.55 926.306c6.518 20.119 25.272 33.719 46.387 33.719 21.11 0 39.803-13.599 46.326-33.719l81.777-251.989c2.422-7.389 7.142-13.848 13.414-18.443 6.333-4.595 13.972-7.080 21.734-7.080l264.97 0.125c21.11 0 39.803-13.599 46.326-33.719 6.518-20.058-0.625-42.041-17.7-54.46l-214.359-155.678c-6.333-4.593-11.054-11.054-13.476-18.442-2.422-7.45-2.36-15.462 0-22.851l81.966-251.93c6.523-20.122-0.62-42.102-17.695-54.523-17.075-12.416-40.238-12.416-57.318 0l-214.231 155.802c-6.333 4.598-13.911 7.081-21.734 7.081s-15.401-2.483-21.734-7.081l-214.298-155.802c-17.075-12.416-40.177-12.416-57.257 0-17.137 12.421-24.274 34.401-17.695 54.523l81.905 251.93c2.422 7.388 2.422 15.401 0 22.851-2.355 7.388-7.076 13.85-13.409 18.442l-214.359 155.678c-17.080 12.419-24.284 34.402-17.761 54.46 6.579 20.12 25.272 33.719 46.387 33.719l264.904-0.125c7.823 0 15.462 2.485 21.734 7.080 6.333 4.595 11.054 11.054 13.414 18.443l81.782 251.989zM3460.669 926.319c6.518 20.119 25.272 33.719 46.387 33.719 21.11 0 39.803-13.599 46.321-33.719l81.782-251.989c2.422-7.39 7.142-13.848 13.414-18.443 6.333-4.595 13.972-7.080 21.734-7.080l264.97 0.125c21.11 0 39.803-13.599 46.321-33.719 6.523-20.057-0.62-42.040-17.695-54.46l-214.359-155.675c-6.333-4.598-11.054-11.054-13.476-18.442-2.422-7.455-2.36-15.468 0-22.856l81.966-251.93c6.523-20.116-0.62-42.097-17.695-54.518-17.080-12.421-40.243-12.421-57.318 0l-214.231 155.802c-6.333 4.593-13.911 7.076-21.734 7.076-7.828 0-15.401-2.483-21.734-7.076l-214.298-155.802c-17.075-12.421-40.177-12.421-57.257 0-17.137 12.421-24.279 34.401-17.695 54.518l81.905 251.93c2.422 7.388 2.422 15.401 0 22.856-2.36 7.388-7.076 13.844-13.414 18.442l-214.354 155.675c-17.080 12.42-24.284 34.403-17.761 54.46 6.579 20.12 25.272 33.719 46.387 33.719l264.904-0.125c7.823 0 15.462 2.485 21.734 7.080 6.333 4.595 11.054 11.053 13.414 18.443l81.782 251.989zM4470.646 926.319c6.523 20.119 25.277 33.719 46.387 33.719 21.115 0 39.808-13.599 46.326-33.719l81.782-251.989c2.422-7.39 7.142-13.848 13.414-18.443 6.333-4.595 13.972-7.080 21.734-7.080l264.965 0.125c21.115 0 39.808-13.599 46.326-33.719 6.518-20.057-0.62-42.040-17.7-54.46l-214.359-155.675c-6.333-4.598-11.054-11.054-13.476-18.442-2.422-7.455-2.355-15.468 0-22.856l81.971-251.93c6.518-20.116-0.62-42.097-17.7-54.518-17.075-12.421-40.238-12.421-57.313 0l-214.236 155.802c-6.333 4.593-13.911 7.076-21.734 7.076s-15.401-2.483-21.734-7.076l-214.292-155.802c-17.080-12.421-40.182-12.421-57.257 0-17.142 12.421-24.279 34.401-17.695 54.518l81.905 251.93c2.422 7.388 2.422 15.401 0 22.856-2.36 7.388-7.081 13.844-13.414 18.442l-214.359 155.675c-17.075 12.42-24.279 34.403-17.761 54.46 6.584 20.12 25.277 33.719 46.387 33.719l264.909-0.125c7.823 0 15.462 2.485 21.734 7.080 6.333 4.595 11.054 11.053 13.409 18.443l81.782 251.989z" />
<glyph unicode="&#xe916;" glyph-name="download-solid-full" d="M563.2 806.4c0 28.32-22.88 51.2-51.2 51.2s-51.2-22.88-51.2-51.2v-337.12l-66.24 66.24c-20 20-52.48 20-72.48 0s-20-52.48 0-72.48l153.6-153.6c20-20 52.48-20 72.48 0l153.6 153.6c20 20 20 52.48 0 72.48s-52.48 20-72.48 0l-66.080-66.24v337.12zM256 345.6c-56.48 0-102.4-45.92-102.4-102.4v-51.2c0-56.48 45.92-102.4 102.4-102.4h512c56.48 0 102.4 45.92 102.4 102.4v51.2c0 56.48-45.92 102.4-102.4 102.4h-75.040l-90.56-90.56c-49.92-49.92-131.040-49.92-180.96 0l-90.4 90.56h-75.040zM742.4 256c21.28 0 38.4-17.12 38.4-38.4s-17.12-38.4-38.4-38.4c-21.28 0-38.4 17.12-38.4 38.4s17.12 38.4 38.4 38.4z" />
<glyph unicode="&#xe917;" glyph-name="link-solid-full" d="M722.4 704c-26.56 0-52.32-7.2-74.88-20.32-25.28 25.6-54.72 47.040-87.2 63.2 45.12 38.4 102.56 59.52 162.080 59.52 138.24 0 250.4-112 250.4-250.4 0-66.4-26.4-130.080-73.28-176.96l-113.76-113.76c-46.88-46.88-110.56-73.28-176.96-73.28-138.24 0-250.4 112-250.4 250.4 0 2.4 0 4.8 0.16 7.2 0.8 28.32 24.32 50.56 52.64 49.76s50.56-24.32 49.76-52.64c0-1.44 0-2.88 0-4.16 0-81.76 66.24-148 148-148 39.2 0 76.8 15.52 104.64 43.36l113.76 113.76c27.68 27.68 43.36 65.44 43.36 104.64 0 81.76-66.24 148-148 148zM491.52 580.32c-3.040 1.28-6.080 3.040-8.8 4.96-20.16 10.4-43.2 16.32-67.36 16.32-39.2 0-76.8-15.52-104.64-43.36l-113.76-113.76c-27.68-27.68-43.36-65.44-43.36-104.64 0-81.76 66.24-148 148-148 26.4 0 52.16 7.040 74.72 20.16 25.28-25.6 54.72-47.040 87.36-63.2-45.12-38.24-102.4-59.52-162.080-59.52-138.24 0-250.4 112-250.4 250.4 0 66.4 26.4 130.080 73.28 176.96l113.76 113.76c46.88 46.88 110.56 73.28 176.96 73.28 138.56 0 250.4-112.96 250.4-251.040 0-2.080 0-4.16 0-6.24-0.64-28.32-24.16-50.56-52.48-49.92s-50.56 24.16-49.92 52.48c0 1.28 0 2.4 0 3.68 0 53.92-28.8 101.28-71.68 127.36z" />
<glyph unicode="&#xe918;" glyph-name="star-solid-full" d="M546.4 887.84c-6.56 12.8-19.84 20.96-34.24 20.96s-27.68-8.16-34.24-20.96l-117.76-230.72-255.84-40.64c-14.24-2.24-26.080-12.32-30.56-26.080s-0.8-28.8 9.28-39.040l183.040-183.2-40.32-255.84c-2.24-14.24 3.68-28.64 15.36-37.12s27.040-9.76 40-3.2l231.040 117.44 230.88-117.44c12.8-6.56 28.32-5.28 40 3.2s17.6 22.72 15.36 37.12l-40.48 255.84 183.040 183.2c10.24 10.24 13.76 25.28 9.28 39.040s-16.16 23.84-30.56 26.080l-255.68 40.64-117.6 230.72z" />
<glyph unicode="&#xe919;" glyph-name="clock-regular-full-1" d="M844.8 448c0-183.84-148.96-332.8-332.8-332.8s-332.8 148.96-332.8 332.8c0 183.84 148.96 332.8 332.8 332.8s332.8-148.96 332.8-332.8zM102.4 448c0-226.24 183.36-409.6 409.6-409.6s409.6 183.36 409.6 409.6c0 226.24-183.36 409.6-409.6 409.6s-409.6-183.36-409.6-409.6zM473.6 665.6v-217.6c0-12.8 6.4-24.8 17.12-32l153.6-102.4c17.6-11.84 41.44-7.040 53.28 10.72s7.040 41.44-10.72 53.28l-136.48 90.88v197.12c0 21.28-17.12 38.4-38.4 38.4s-38.4-17.12-38.4-38.4z" />
<glyph unicode="&#xe91a;" glyph-name="file-contract-regular-full" d="M486.4 780.8h-179.2c-14.080 0-25.6-11.52-25.6-25.6v-614.4c0-14.080 11.52-25.6 25.6-25.6h409.6c14.080 0 25.6 11.52 25.6 25.6v384h-140.8c-63.68 0-115.2 51.52-115.2 115.2v140.8zM710.56 601.6l-147.36 147.36v-108.96c0-21.28 17.12-38.4 38.4-38.4h108.96zM204.8 755.2c0 56.48 45.92 102.4 102.4 102.4h213.6c27.2 0 53.28-10.72 72.48-29.92l196-196.16c19.2-19.2 29.92-45.28 29.92-72.48v-418.24c0-56.48-45.92-102.4-102.4-102.4h-409.6c-56.48 0-102.4 45.92-102.4 102.4v614.4zM437.28 374.56c11.2 14.080 28.32 22.24 46.24 22.24 26.24 0 49.28-17.12 56.8-42.24l25.76-85.76h86.56c21.28 0 38.4-17.12 38.4-38.4s-17.12-38.4-38.4-38.4h-115.2c-16.96 0-31.84 11.2-36.8 27.36l-24.32 81.12-75.36-94.080c-13.28-16.64-37.44-19.2-53.92-6.080s-19.040 37.44-5.76 54.080l96.16 120.16zM371.2 729.6h25.6c21.28 0 38.4-17.12 38.4-38.4s-17.12-38.4-38.4-38.4h-25.6c-21.28 0-38.4 17.12-38.4 38.4s17.12 38.4 38.4 38.4zM371.2 601.6h25.6c21.28 0 38.4-17.12 38.4-38.4s-17.12-38.4-38.4-38.4h-25.6c-21.28 0-38.4 17.12-38.4 38.4s17.12 38.4 38.4 38.4z" />
<glyph unicode="&#xe91b;" glyph-name="location-dot-regular-full" d="M281.6 555.84c0 123.040 101.92 224.96 230.4 224.96s230.4-101.92 230.4-224.96c0-72.96-38.080-162.4-94.24-251.36-45.28-71.68-97.6-135.68-136.16-179.36-38.56 43.68-90.72 107.52-136.16 179.36-56.16 88.8-94.24 178.4-94.24 251.36zM512 857.6c-169.6 0-307.2-135.040-307.2-301.76 0-190.88 192.32-419.68 272.64-506.88 18.88-20.48 50.24-20.48 69.12 0 80.32 87.2 272.64 316 272.64 506.88 0 166.72-137.6 301.76-307.2 301.76zM460.8 550.4c0 28.32 22.88 51.2 51.2 51.2s51.2-22.88 51.2-51.2c0-28.32-22.88-51.2-51.2-51.2s-51.2 22.88-51.2 51.2zM640 550.4c0 70.72-57.28 128-128 128s-128-57.28-128-128c0-70.72 57.28-128 128-128s128 57.28 128 128z" />
<glyph unicode="&#xe91c;" glyph-name="arrow-right-solid-full-1" d="M906.56 411.84c20 20 20 52.48 0 72.48l-256 256c-20 20-52.48 20-72.48 0s-20-52.48 0-72.48l168.64-168.64h-593.12c-28.32 0-51.2-22.88-51.2-51.2s22.88-51.2 51.2-51.2h593.12l-168.64-168.64c-20-20-20-52.48 0-72.48s52.48-20 72.48 0l256 256z" />
</font>
</defs>
</svg>
